<?xml version="1.0" encoding="UTF-8" standalone="no"?>
<!-- Created with Inkscape (http://www.inkscape.org/) -->

<svg
   xmlns:dc="http://purl.org/dc/elements/1.1/"
   xmlns:cc="http://creativecommons.org/ns#"
   xmlns:rdf="http://www.w3.org/1999/02/22-rdf-syntax-ns#"
   xmlns:svg="http://www.w3.org/2000/svg"
   xmlns="http://www.w3.org/2000/svg"
   xmlns:sodipodi="http://sodipodi.sourceforge.net/DTD/sodipodi-0.dtd"
   xmlns:inkscape="http://www.inkscape.org/namespaces/inkscape"
   width="75"
   height="75"
   id="svg4100"
   version="1.1"
   inkscape:version="0.48.4 r9939"
   sodipodi:docname="dice-6.svg">
  <defs
     id="defs4102" />
  <sodipodi:namedview
     id="base"
     pagecolor="#ffffff"
     bordercolor="#666666"
     borderopacity="1.0"
     inkscape:pageopacity="0.0"
     inkscape:pageshadow="2"
     inkscape:zoom="6.407514"
     inkscape:cx="13.109991"
     inkscape:cy="36.835582"
     inkscape:document-units="px"
     inkscape:current-layer="layer1"
     showgrid="false"
     showguides="true"
     inkscape:guide-bbox="true"
     inkscape:snap-global="true"
     inkscape:window-width="1266"
     inkscape:window-height="728"
     inkscape:window-x="234"
     inkscape:window-y="234"
     inkscape:window-maximized="0">
    <sodipodi:guide
       orientation="0,1"
       position="38.392425,75.068115"
       id="guide4141" />
    <sodipodi:guide
       orientation="0,1"
       position="34.334689,0"
       id="guide4143" />
    <sodipodi:guide
       orientation="1,0"
       position="0,23.097882"
       id="guide4145" />
    <sodipodi:guide
       orientation="1,0"
       position="75.068115,48.536765"
       id="guide4147" />
    <sodipodi:guide
       orientation="1,0"
       position="14.98241,54.311235"
       id="guide4149" />
    <sodipodi:guide
       orientation="1,0"
       position="59.929639,55.247636"
       id="guide4151" />
    <sodipodi:guide
       orientation="0,1"
       position="46.82003,59.929639"
       id="guide4153" />
    <sodipodi:guide
       orientation="0,1"
       position="44.635095,14.98241"
       id="guide4155" />
    <sodipodi:guide
       orientation="1,0"
       position="37.456024,38.704558"
       id="guide4157" />
    <sodipodi:guide
       orientation="0,1"
       position="53.218768,37.456024"
       id="guide4159" />
  </sodipodi:namedview>
  <metadata
     id="metadata4105">
    <rdf:RDF>
      <cc:Work
         rdf:about="">
        <dc:format>image/svg+xml</dc:format>
        <dc:type
           rdf:resource="http://purl.org/dc/dcmitype/StillImage" />
        <dc:title />
      </cc:Work>
    </rdf:RDF>
  </metadata>
  <g
     inkscape:label="Layer 1"
     inkscape:groupmode="layer"
     id="layer1"
     transform="translate(0,-977.36218)">
    <path
       id="path4161-1-7-4-4"
       transform="matrix(1.1214283,0,0,1.1214283,18.025754,995.2593)"
       style="fill:#000000;stroke:none"
       d="m 42.643924,37.543976 c 0,2.865198 -2.322702,5.187899 -5.1879,5.187899 -2.865198,0 -5.187899,-2.322701 -5.187899,-5.187899 0,-2.865198 2.322701,-5.1879 5.187899,-5.1879 2.865198,0 5.1879,2.322702 5.1879,5.1879 z m 0,-20.063681 c 0,2.865198 -2.322702,5.187899 -5.1879,5.187899 -2.865198,0 -5.187899,-2.322701 -5.187899,-5.187899 0,-2.865198 2.322701,-5.1879 5.187899,-5.1879 2.865198,0 5.1879,2.322702 5.1879,5.1879 z m 0,-20.0636994 c 0,2.86519799 -2.322702,5.187899 -5.1879,5.187899 -2.865198,0 -5.187899,-2.32270101 -5.187899,-5.187899 0,-2.865198 2.322701,-5.1879 5.187899,-5.1879 2.865198,0 5.1879,2.322702 5.1879,5.1879 z M 2.4897742,37.543976 c 0,2.865198 -2.32270205,5.187899 -5.1879,5.187899 -2.865198,0 -5.187899,-2.322701 -5.187899,-5.187899 0,-2.865198 2.322701,-5.1879 5.187899,-5.1879 2.86519795,0 5.1879,2.322702 5.1879,5.1879 z m 0,-20.063699 c 0,2.865198 -2.32270205,5.187899 -5.1879,5.187899 -2.865198,0 -5.187899,-2.322701 -5.187899,-5.187899 0,-2.865198 2.322701,-5.1879 5.187899,-5.1879 2.86519795,0 5.1879,2.322702 5.1879,5.1879 z m 0,-20.0636992 c 0,2.86519795 -2.32270205,5.187899 -5.1879,5.187899 -2.865198,0 -5.187899,-2.32270105 -5.187899,-5.187899 0,-2.865198 2.322701,-5.1879 5.187899,-5.1879 2.86519795,0 5.1879,2.322702 5.1879,5.1879 z M -11.002267,-16.00352 c -2.805788,0 -5.099524,2.293736 -5.099524,5.099524 l 0,56.735638 c 0,2.805797 2.293736,5.099568 5.099524,5.099568 l 56.735682,0 c 2.805788,0 5.099524,-2.293771 5.099524,-5.099568 l 0,-56.735638 c 0,-2.805788 -2.293736,-5.099524 -5.099524,-5.099524 l -56.735682,0 z m 0,2.340765 56.735682,0 c 1.542136,0 2.730893,1.216618 2.730893,2.758759 l 0,56.735638 c 0,1.54214 -1.188757,2.730981 -2.730893,2.730981 l -56.735682,0 c -1.542137,0 -2.758759,-1.188841 -2.758759,-2.730981 l 0,-56.735638 c 0,-1.542141 1.216622,-2.758759 2.758759,-2.758759 z" />
  </g>
</svg>
